<svg id="svg" xmlns="http://www.w3.org/2000/svg" xmlns:xlink="http://www.w3.org/1999/xlink" width="400" height="400" viewBox="0, 0, 400,400"><g id="svgg"><path id="path0" d="M55.963 50.603 C 42.001 54.433,37.585 68.417,37.608 108.732 C 37.631 148.641,44.341 170.139,62.767 189.344 C 67.168 193.932,79.975 204.000,81.409 204.000 C 81.556 204.000,82.173 204.353,82.780 204.786 C 85.659 206.836,97.964 212.434,103.600 214.258 C 104.590 214.578,105.760 214.990,106.200 215.173 C 106.640 215.355,108.350 215.908,110.000 216.401 C 111.650 216.893,113.450 217.438,114.000 217.610 C 114.550 217.782,115.900 218.132,117.000 218.387 C 118.871 218.821,119.665 219.015,123.500 219.976 C 124.325 220.183,126.170 220.556,127.600 220.806 C 129.030 221.056,131.010 221.416,132.000 221.606 C 139.259 223.000,150.144 224.287,159.000 224.798 C 162.960 225.027,166.679 225.293,167.265 225.390 C 168.891 225.659,169.223 224.855,169.437 220.134 C 169.545 217.750,169.799 214.450,170.001 212.800 C 170.203 211.150,170.567 208.000,170.809 205.800 C 171.778 197.000,174.224 183.695,176.214 176.400 C 177.972 169.952,178.120 170.873,174.083 163.117 C 167.695 150.841,162.237 141.143,156.796 132.400 C 155.632 130.530,154.480 128.640,154.236 128.200 C 153.247 126.415,146.482 116.295,143.273 111.800 C 123.392 83.950,105.005 66.002,86.973 56.845 C 84.758 55.720,82.821 54.800,82.669 54.800 C 82.516 54.800,81.628 54.455,80.696 54.033 C 77.180 52.444,74.013 51.581,67.433 50.418 C 64.332 49.870,58.279 49.968,55.963 50.603 M333.800 50.227 C 333.580 50.318,332.320 50.563,331.000 50.772 C 326.394 51.502,322.645 52.513,319.800 53.794 C 319.140 54.091,317.790 54.653,316.800 55.044 C 294.508 63.827,263.706 96.942,240.198 137.400 C 238.920 139.600,237.092 142.702,236.137 144.293 C 235.182 145.884,234.400 147.272,234.400 147.376 C 234.400 147.480,233.893 148.428,233.273 149.482 C 231.627 152.284,229.751 155.763,225.816 163.316 C 221.896 170.841,222.018 170.075,223.775 176.200 C 226.616 186.107,229.479 204.131,230.444 218.200 C 230.699 221.911,231.076 224.785,231.342 225.041 C 232.230 225.896,257.598 223.655,265.600 222.016 C 266.810 221.768,269.330 221.303,271.200 220.984 C 273.070 220.665,275.320 220.235,276.200 220.030 C 277.080 219.824,278.700 219.452,279.800 219.203 C 282.257 218.646,284.673 218.014,286.000 217.581 C 286.550 217.401,288.350 216.864,290.000 216.387 C 291.650 215.909,293.360 215.379,293.800 215.208 C 294.240 215.038,296.490 214.217,298.800 213.385 C 307.034 210.418,316.139 205.830,323.058 201.161 C 351.701 181.833,362.411 156.466,362.390 108.000 C 362.373 67.985,357.983 54.317,343.948 50.581 C 342.012 50.066,334.805 49.815,333.800 50.227 M157.663 75.931 C 157.481 76.299,157.093 77.680,156.802 79.000 C 156.510 80.320,155.964 82.660,155.589 84.200 C 154.779 87.521,154.566 87.211,158.763 88.818 C 168.890 92.698,177.482 102.205,183.147 115.800 C 183.880 117.560,184.632 119.360,184.818 119.800 C 185.135 120.547,187.157 126.705,187.971 129.400 C 192.731 145.152,194.254 161.294,191.665 168.536 C 189.482 174.639,188.528 178.132,186.427 187.700 C 186.020 189.554,185.475 192.644,184.789 197.000 C 184.546 198.540,184.191 200.700,184.000 201.800 C 181.494 216.213,180.870 237.680,182.405 256.600 C 183.325 267.936,185.004 279.052,187.419 289.800 C 190.371 302.936,193.409 313.745,199.001 331.000 C 199.999 334.079,200.845 332.349,204.774 319.200 C 205.920 315.365,206.223 314.372,207.211 311.201 C 208.974 305.547,213.416 286.854,214.388 281.000 C 214.644 279.460,215.013 277.390,215.209 276.400 C 219.315 255.674,219.655 221.746,215.980 199.500 C 214.684 191.653,214.138 188.696,213.600 186.600 C 213.431 185.940,213.070 184.320,212.798 183.000 C 212.526 181.680,211.885 179.160,211.372 177.400 C 210.860 175.640,210.162 173.223,209.821 172.030 C 209.480 170.836,208.556 168.137,207.768 166.032 L 206.334 162.205 206.786 158.202 C 211.179 119.331,223.280 95.071,241.519 88.569 C 243.214 87.965,244.726 87.365,244.879 87.235 C 245.205 86.960,242.652 76.088,242.144 75.592 C 240.782 74.261,229.384 79.890,223.663 84.720 C 214.143 92.757,206.184 105.916,201.490 121.379 C 200.578 124.383,199.788 125.527,199.449 124.333 C 193.803 104.408,183.781 88.937,171.380 81.004 C 166.039 77.588,158.267 74.713,157.663 75.931 M122.760 235.316 C 97.511 249.303,76.191 276.506,70.025 302.600 C 69.765 303.700,69.400 305.230,69.214 306.000 C 64.504 325.441,73.302 342.187,91.000 347.471 C 115.140 354.678,140.930 346.666,157.326 326.867 C 162.520 320.595,169.501 308.726,171.010 303.600 C 171.172 303.050,171.623 301.880,172.013 301.000 C 174.848 294.603,175.155 292.539,174.038 287.400 C 173.560 285.200,173.003 282.230,172.801 280.800 C 172.599 279.370,172.244 277.030,172.013 275.600 C 171.628 273.229,171.082 268.858,170.013 259.600 C 169.797 257.730,169.409 252.150,169.151 247.200 C 168.893 242.250,168.625 238.131,168.554 238.047 C 168.484 237.962,165.675 237.743,162.313 237.559 C 151.485 236.968,140.847 235.818,132.800 234.367 C 127.274 233.371,126.064 233.485,122.760 235.316 M268.600 234.079 C 263.413 235.034,262.391 235.201,259.400 235.575 C 248.593 236.928,241.312 237.599,237.382 237.604 C 235.632 237.607,233.525 237.720,232.700 237.857 L 231.200 238.105 231.201 240.552 C 231.207 251.760,228.932 272.399,226.097 286.858 C 224.869 293.121,224.810 292.709,228.192 301.400 C 234.923 318.701,244.042 330.882,256.703 339.486 C 263.251 343.936,272.064 347.686,278.600 348.803 C 280.140 349.066,282.264 349.443,283.320 349.641 C 289.395 350.777,302.645 349.581,309.898 347.241 C 327.265 341.637,335.491 325.042,330.636 305.400 C 330.527 304.960,330.144 303.340,329.785 301.800 C 324.507 279.159,305.544 253.289,284.103 239.477 C 274.996 233.610,273.662 233.146,268.600 234.079 " stroke="none" fill="#444444" fill-rule="evenodd"></path><path id="path1" d="M0.000 200.000 L 0.000 400.000 200.000 400.000 L 400.000 400.000 400.000 200.000 L 400.000 0.000 200.000 0.000 L 0.000 0.000 0.000 200.000 M67.433 50.418 C 74.013 51.581,77.180 52.444,80.696 54.033 C 81.628 54.455,82.516 54.800,82.669 54.800 C 82.821 54.800,84.758 55.720,86.973 56.845 C 105.005 66.002,123.392 83.950,143.273 111.800 C 146.482 116.295,153.247 126.415,154.236 128.200 C 154.480 128.640,155.632 130.530,156.796 132.400 C 162.237 141.143,167.695 150.841,174.083 163.117 C 178.120 170.873,177.972 169.952,176.214 176.400 C 174.224 183.695,171.778 197.000,170.809 205.800 C 170.567 208.000,170.203 211.150,170.001 212.800 C 169.799 214.450,169.545 217.750,169.437 220.134 C 169.223 224.855,168.891 225.659,167.265 225.390 C 166.679 225.293,162.960 225.027,159.000 224.798 C 150.144 224.287,139.259 223.000,132.000 221.606 C 131.010 221.416,129.030 221.056,127.600 220.806 C 126.170 220.556,124.325 220.183,123.500 219.976 C 119.665 219.015,118.871 218.821,117.000 218.387 C 115.900 218.132,114.550 217.782,114.000 217.610 C 113.450 217.438,111.650 216.893,110.000 216.401 C 108.350 215.908,106.640 215.355,106.200 215.173 C 105.760 214.990,104.590 214.578,103.600 214.258 C 97.964 212.434,85.659 206.836,82.780 204.786 C 82.173 204.353,81.556 204.000,81.409 204.000 C 79.975 204.000,67.168 193.932,62.767 189.344 C 44.341 170.139,37.631 148.641,37.608 108.732 C 37.581 60.911,44.977 46.450,67.433 50.418 M343.948 50.581 C 357.983 54.317,362.373 67.985,362.390 108.000 C 362.411 156.466,351.701 181.833,323.058 201.161 C 316.139 205.830,307.034 210.418,298.800 213.385 C 296.490 214.217,294.240 215.038,293.800 215.208 C 293.360 215.379,291.650 215.909,290.000 216.387 C 288.350 216.864,286.550 217.401,286.000 217.581 C 284.673 218.014,282.257 218.646,279.800 219.203 C 278.700 219.452,277.080 219.824,276.200 220.030 C 275.320 220.235,273.070 220.665,271.200 220.984 C 269.330 221.303,266.810 221.768,265.600 222.016 C 257.598 223.655,232.230 225.896,231.342 225.041 C 231.076 224.785,230.699 221.911,230.444 218.200 C 229.479 204.131,226.616 186.107,223.775 176.200 C 222.018 170.075,221.896 170.841,225.816 163.316 C 229.751 155.763,231.627 152.284,233.273 149.482 C 233.893 148.428,234.400 147.480,234.400 147.376 C 234.400 147.272,235.182 145.884,236.137 144.293 C 237.092 142.702,238.920 139.600,240.198 137.400 C 263.706 96.942,294.508 63.827,316.800 55.044 C 317.790 54.653,319.140 54.091,319.800 53.794 C 322.645 52.513,326.394 51.502,331.000 50.772 C 332.320 50.563,333.580 50.318,333.800 50.227 C 334.805 49.815,342.012 50.066,343.948 50.581 M162.993 76.877 C 171.174 80.099,177.381 84.586,183.081 91.400 C 189.710 99.325,195.880 111.739,199.449 124.333 C 199.788 125.527,200.578 124.383,201.490 121.379 C 208.560 98.089,222.003 81.694,238.400 76.361 C 240.270 75.753,241.955 75.407,242.144 75.592 C 242.652 76.088,245.205 86.960,244.879 87.235 C 244.726 87.365,243.214 87.965,241.519 88.569 C 223.280 95.071,211.179 119.331,206.786 158.202 L 206.334 162.205 207.768 166.032 C 208.556 168.137,209.480 170.836,209.821 172.030 C 210.162 173.223,210.860 175.640,211.372 177.400 C 211.885 179.160,212.526 181.680,212.798 183.000 C 213.070 184.320,213.431 185.940,213.600 186.600 C 214.138 188.696,214.684 191.653,215.980 199.500 C 216.843 204.725,217.852 214.817,218.452 224.215 C 219.297 237.465,217.640 264.128,215.209 276.400 C 215.013 277.390,214.644 279.460,214.388 281.000 C 213.416 286.854,208.974 305.547,207.211 311.201 C 206.223 314.372,205.920 315.365,204.774 319.200 C 200.845 332.349,199.999 334.079,199.001 331.000 C 194.399 316.798,190.817 304.441,188.799 295.800 C 187.148 288.730,186.860 287.381,185.642 281.000 C 181.670 260.187,180.475 236.256,182.408 216.200 C 183.255 207.419,183.659 203.762,184.000 201.800 C 184.191 200.700,184.546 198.540,184.789 197.000 C 185.475 192.644,186.020 189.554,186.427 187.700 C 188.528 178.132,189.482 174.639,191.665 168.536 C 194.254 161.294,192.731 145.152,187.971 129.400 C 187.157 126.705,185.135 120.547,184.818 119.800 C 184.632 119.360,183.880 117.560,183.147 115.800 C 177.482 102.205,168.890 92.698,158.763 88.818 C 154.566 87.211,154.779 87.521,155.589 84.200 C 155.964 82.660,156.510 80.320,156.802 79.000 C 157.730 74.800,157.725 74.802,162.993 76.877 M132.800 234.367 C 140.847 235.818,151.485 236.968,162.313 237.559 C 165.675 237.743,168.484 237.962,168.554 238.047 C 168.625 238.131,168.893 242.250,169.151 247.200 C 169.409 252.150,169.797 257.730,170.013 259.600 C 171.082 268.858,171.628 273.229,172.013 275.600 C 172.244 277.030,172.599 279.370,172.801 280.800 C 173.003 282.230,173.560 285.200,174.038 287.400 C 175.155 292.539,174.848 294.603,172.013 301.000 C 171.623 301.880,171.172 303.050,171.010 303.600 C 169.501 308.726,162.520 320.595,157.326 326.867 C 140.930 346.666,115.140 354.678,91.000 347.471 C 73.302 342.187,64.504 325.441,69.214 306.000 C 69.400 305.230,69.765 303.700,70.025 302.600 C 75.616 278.938,94.027 253.766,116.442 239.139 C 125.156 233.452,126.137 233.166,132.800 234.367 M277.119 235.281 C 302.117 248.923,323.860 276.385,329.785 301.800 C 330.144 303.340,330.527 304.960,330.636 305.400 C 335.491 325.042,327.265 341.637,309.898 347.241 C 302.645 349.581,289.395 350.777,283.320 349.641 C 282.264 349.443,280.140 349.066,278.600 348.803 C 255.357 344.830,234.769 323.736,225.754 294.658 C 225.029 292.321,225.030 292.303,226.097 286.858 C 228.932 272.399,231.207 251.760,231.201 240.552 L 231.200 238.105 232.700 237.857 C 233.525 237.720,235.632 237.607,237.382 237.604 C 241.312 237.599,248.593 236.928,259.400 235.575 C 262.391 235.201,263.413 235.034,268.600 234.079 C 272.695 233.324,273.824 233.484,277.119 235.281 " stroke="none" fill="#fbfbfb" fill-rule="evenodd"></path></g></svg>